<svg width="1080" height="1080" viewBox="0 0 1080 1080" fill="none" xmlns="http://www.w3.org/2000/svg">
<rect width="1080" height="1080" rx="540" fill="white"/>
<path d="M435.856 499.573H447.219V591.824H437.209V518.104L406.368 591.824H396.9L367.412 518.375V591.824H357.267V499.573H369.711L402.04 580.462L435.856 499.573ZM494.183 593.988C488.141 593.988 482.73 592.546 477.951 589.66C473.171 586.774 469.429 582.761 466.724 577.621C464.018 572.391 462.666 566.529 462.666 560.037C462.666 553.544 463.973 547.772 466.588 542.723C469.294 537.582 472.991 533.57 477.68 530.684C482.459 527.798 487.87 526.355 493.912 526.355C499.954 526.355 505.365 527.798 510.144 530.684C514.923 533.57 518.666 537.582 521.371 542.723C524.076 547.863 525.429 553.679 525.429 560.172C525.429 566.665 524.076 572.481 521.371 577.621C518.756 582.761 515.059 586.774 510.279 589.66C505.59 592.546 500.224 593.988 494.183 593.988ZM493.912 585.602C498.241 585.602 502.073 584.52 505.41 582.356C508.836 580.191 511.497 577.17 513.39 573.293C515.284 569.415 516.231 565.041 516.231 560.172C516.231 555.302 515.284 550.929 513.39 547.051C511.497 543.173 508.836 540.152 505.41 537.988C502.073 535.824 498.241 534.742 493.912 534.742C489.674 534.742 485.886 535.824 482.55 537.988C479.213 540.152 476.598 543.173 474.704 547.051C472.81 550.839 471.864 555.167 471.864 560.037C471.864 564.996 472.81 569.415 474.704 573.293C476.598 577.17 479.213 580.191 482.55 582.356C485.886 584.52 489.674 585.602 493.912 585.602ZM586.198 528.52H595.396V591.824H586.198V541.37L548.593 591.824H539.395V528.52H548.593V579.65L586.198 528.52ZM566.719 518.51C560.858 518.51 556.168 517.338 552.651 514.993C549.135 512.648 547.376 509.492 547.376 505.524H556.574C556.574 509.672 559.956 511.747 566.719 511.747C573.482 511.747 576.864 509.672 576.864 505.524H586.062C586.062 509.492 584.304 512.648 580.787 514.993C577.27 517.338 572.581 518.51 566.719 518.51Z" fill="black"/>
<mask id="path-3-outside-1_1071_149" maskUnits="userSpaceOnUse" x="623.164" y="497.824" width="370" height="123" fill="black">
<rect fill="white" x="623.164" y="497.824" width="370" height="123"/>
<path d="M624.985 591.824V499.572H691.401V591.824H681.256V507.959H635.13V591.824H624.985ZM742.176 526.355C748.218 526.355 753.629 527.798 758.408 530.684C763.188 533.569 766.93 537.582 769.635 542.722C772.341 547.863 773.693 553.724 773.693 560.307C773.693 566.8 772.341 572.616 769.635 577.756C767.02 582.806 763.323 586.774 758.543 589.66C753.854 592.546 748.489 593.988 742.447 593.988C737.848 593.988 733.609 592.997 729.732 591.013C725.944 588.939 722.743 586.053 720.128 582.356V618.878H710.93V528.519H720.128V537.853C722.743 534.246 725.944 531.45 729.732 529.466C733.519 527.392 737.667 526.355 742.176 526.355ZM742.447 585.602C746.685 585.602 750.473 584.52 753.809 582.356C757.146 580.191 759.761 577.215 761.655 573.428C763.548 569.55 764.495 565.177 764.495 560.307C764.495 555.347 763.548 550.929 761.655 547.051C759.761 543.173 757.146 540.152 753.809 537.988C750.473 535.824 746.685 534.742 742.447 534.742C738.118 534.742 734.24 535.824 730.814 537.988C727.477 540.152 724.862 543.173 722.968 547.051C721.075 550.929 720.128 555.302 720.128 560.172C720.128 565.041 721.075 569.415 722.968 573.293C724.862 577.17 727.477 580.191 730.814 582.356C734.24 584.52 738.118 585.602 742.447 585.602ZM845.459 528.519V591.824H836.261V582.491C833.645 586.098 830.444 588.939 826.657 591.013C822.869 592.997 818.721 593.988 814.212 593.988C808.17 593.988 802.759 592.546 797.98 589.66C793.201 586.774 789.458 582.761 786.753 577.621C784.048 572.481 782.695 566.62 782.695 560.037C782.695 553.544 784.002 547.772 786.618 542.722C789.323 537.582 793.02 533.569 797.71 530.684C802.489 527.798 807.9 526.355 813.942 526.355C818.541 526.355 822.734 527.392 826.521 529.466C830.399 531.45 833.645 534.291 836.261 537.988V528.519H845.459ZM813.942 585.602C818.27 585.602 822.103 584.52 825.439 582.356C828.866 580.191 831.526 577.17 833.42 573.293C835.314 569.415 836.261 565.041 836.261 560.172C836.261 555.302 835.314 550.929 833.42 547.051C831.526 543.173 828.866 540.152 825.439 537.988C822.103 535.824 818.27 534.742 813.942 534.742C809.703 534.742 805.916 535.824 802.579 537.988C799.243 540.152 796.627 543.173 794.734 547.051C792.84 550.838 791.893 555.167 791.893 560.037C791.893 564.996 792.84 569.415 794.734 573.293C796.627 577.17 799.243 580.191 802.579 582.356C805.916 584.52 809.703 585.602 813.942 585.602ZM910.19 528.519H919.388V591.824H910.19V541.37L872.586 591.824H863.388V528.519H872.586V579.65L910.19 528.519ZM890.712 518.51C884.85 518.51 880.161 517.337 876.644 514.993C873.127 512.648 871.369 509.492 871.369 505.524H880.567C880.567 509.672 883.948 511.746 890.712 511.746C897.475 511.746 900.857 509.672 900.857 505.524H910.055C910.055 509.492 908.296 512.648 904.78 514.993C901.263 517.337 896.573 518.51 890.712 518.51ZM964.799 593.988C958.667 593.988 953.211 592.546 948.432 589.66C943.652 586.774 939.91 582.761 937.204 577.621C934.499 572.481 933.146 566.665 933.146 560.172C933.146 553.679 934.454 547.863 937.069 542.722C939.775 537.582 943.517 533.569 948.296 530.684C953.076 527.798 958.486 526.355 964.528 526.355C969.669 526.355 974.132 527.482 977.92 529.737C981.797 531.901 985.314 535.012 988.471 539.07L981.707 544.346C977.289 537.943 971.562 534.742 964.528 534.742C960.29 534.742 956.457 535.824 953.031 537.988C949.694 540.152 947.079 543.173 945.185 547.051C943.291 550.929 942.345 555.302 942.345 560.172C942.345 565.041 943.291 569.415 945.185 573.293C947.079 577.17 949.694 580.191 953.031 582.356C956.457 584.52 960.29 585.602 964.528 585.602C968.857 585.602 972.419 584.881 975.214 583.438C978.01 581.905 980.535 579.695 982.789 576.81L989.959 581.814C986.983 585.512 983.285 588.488 978.867 590.742C974.538 592.906 969.849 593.988 964.799 593.988Z"/>
</mask>
<path d="M624.985 591.824V499.572H691.401V591.824H681.256V507.959H635.13V591.824H624.985ZM742.176 526.355C748.218 526.355 753.629 527.798 758.408 530.684C763.188 533.569 766.93 537.582 769.635 542.722C772.341 547.863 773.693 553.724 773.693 560.307C773.693 566.8 772.341 572.616 769.635 577.756C767.02 582.806 763.323 586.774 758.543 589.66C753.854 592.546 748.489 593.988 742.447 593.988C737.848 593.988 733.609 592.997 729.732 591.013C725.944 588.939 722.743 586.053 720.128 582.356V618.878H710.93V528.519H720.128V537.853C722.743 534.246 725.944 531.45 729.732 529.466C733.519 527.392 737.667 526.355 742.176 526.355ZM742.447 585.602C746.685 585.602 750.473 584.52 753.809 582.356C757.146 580.191 759.761 577.215 761.655 573.428C763.548 569.55 764.495 565.177 764.495 560.307C764.495 555.347 763.548 550.929 761.655 547.051C759.761 543.173 757.146 540.152 753.809 537.988C750.473 535.824 746.685 534.742 742.447 534.742C738.118 534.742 734.24 535.824 730.814 537.988C727.477 540.152 724.862 543.173 722.968 547.051C721.075 550.929 720.128 555.302 720.128 560.172C720.128 565.041 721.075 569.415 722.968 573.293C724.862 577.17 727.477 580.191 730.814 582.356C734.24 584.52 738.118 585.602 742.447 585.602ZM845.459 528.519V591.824H836.261V582.491C833.645 586.098 830.444 588.939 826.657 591.013C822.869 592.997 818.721 593.988 814.212 593.988C808.17 593.988 802.759 592.546 797.98 589.66C793.201 586.774 789.458 582.761 786.753 577.621C784.048 572.481 782.695 566.62 782.695 560.037C782.695 553.544 784.002 547.772 786.618 542.722C789.323 537.582 793.02 533.569 797.71 530.684C802.489 527.798 807.9 526.355 813.942 526.355C818.541 526.355 822.734 527.392 826.521 529.466C830.399 531.45 833.645 534.291 836.261 537.988V528.519H845.459ZM813.942 585.602C818.27 585.602 822.103 584.52 825.439 582.356C828.866 580.191 831.526 577.17 833.42 573.293C835.314 569.415 836.261 565.041 836.261 560.172C836.261 555.302 835.314 550.929 833.42 547.051C831.526 543.173 828.866 540.152 825.439 537.988C822.103 535.824 818.27 534.742 813.942 534.742C809.703 534.742 805.916 535.824 802.579 537.988C799.243 540.152 796.627 543.173 794.734 547.051C792.84 550.838 791.893 555.167 791.893 560.037C791.893 564.996 792.84 569.415 794.734 573.293C796.627 577.17 799.243 580.191 802.579 582.356C805.916 584.52 809.703 585.602 813.942 585.602ZM910.19 528.519H919.388V591.824H910.19V541.37L872.586 591.824H863.388V528.519H872.586V579.65L910.19 528.519ZM890.712 518.51C884.85 518.51 880.161 517.337 876.644 514.993C873.127 512.648 871.369 509.492 871.369 505.524H880.567C880.567 509.672 883.948 511.746 890.712 511.746C897.475 511.746 900.857 509.672 900.857 505.524H910.055C910.055 509.492 908.296 512.648 904.78 514.993C901.263 517.337 896.573 518.51 890.712 518.51ZM964.799 593.988C958.667 593.988 953.211 592.546 948.432 589.66C943.652 586.774 939.91 582.761 937.204 577.621C934.499 572.481 933.146 566.665 933.146 560.172C933.146 553.679 934.454 547.863 937.069 542.722C939.775 537.582 943.517 533.569 948.296 530.684C953.076 527.798 958.486 526.355 964.528 526.355C969.669 526.355 974.132 527.482 977.92 529.737C981.797 531.901 985.314 535.012 988.471 539.07L981.707 544.346C977.289 537.943 971.562 534.742 964.528 534.742C960.29 534.742 956.457 535.824 953.031 537.988C949.694 540.152 947.079 543.173 945.185 547.051C943.291 550.929 942.345 555.302 942.345 560.172C942.345 565.041 943.291 569.415 945.185 573.293C947.079 577.17 949.694 580.191 953.031 582.356C956.457 584.52 960.29 585.602 964.528 585.602C968.857 585.602 972.419 584.881 975.214 583.438C978.01 581.905 980.535 579.695 982.789 576.81L989.959 581.814C986.983 585.512 983.285 588.488 978.867 590.742C974.538 592.906 969.849 593.988 964.799 593.988Z" fill="black"/>
<path d="M624.985 591.824H623.417V593.393H624.985V591.824ZM624.985 499.572V498.004H623.417V499.572H624.985ZM691.401 499.572H692.97V498.004H691.401V499.572ZM691.401 591.824V593.393H692.97V591.824H691.401ZM681.256 591.824H679.688V593.393H681.256V591.824ZM681.256 507.959H682.825V506.39H681.256V507.959ZM635.13 507.959V506.39H633.562V507.959H635.13ZM635.13 591.824V593.393H636.699V591.824H635.13ZM626.554 591.824V499.572H623.417V591.824H626.554ZM624.985 501.141H691.401V498.004H624.985V501.141ZM689.833 499.572V591.824H692.97V499.572H689.833ZM691.401 590.256H681.256V593.393H691.401V590.256ZM682.825 591.824V507.959H679.688V591.824H682.825ZM681.256 506.39H635.13V509.527H681.256V506.39ZM633.562 507.959V591.824H636.699V507.959H633.562ZM635.13 590.256H624.985V593.393H635.13V590.256ZM769.635 542.722L771.023 541.992L769.635 542.722ZM769.635 577.756L768.247 577.026L768.242 577.035L769.635 577.756ZM758.543 589.66L757.733 588.317L757.721 588.324L758.543 589.66ZM729.732 591.013L728.978 592.389L728.997 592.399L729.017 592.409L729.732 591.013ZM720.128 582.356L721.408 581.45L718.559 577.421V582.356H720.128ZM720.128 618.878V620.446H721.696V618.878H720.128ZM710.93 618.878H709.361V620.446H710.93V618.878ZM710.93 528.519V526.951H709.361V528.519H710.93ZM720.128 528.519H721.696V526.951H720.128V528.519ZM720.128 537.853H718.559V542.689L721.398 538.774L720.128 537.853ZM729.732 529.466L730.459 530.856L730.472 530.849L730.485 530.842L729.732 529.466ZM753.809 582.356L754.663 583.672L753.809 582.356ZM761.655 573.428L763.058 574.129L763.061 574.123L763.064 574.116L761.655 573.428ZM761.655 547.051L763.064 546.363L761.655 547.051ZM753.809 537.988L754.663 536.672L753.809 537.988ZM730.814 537.988L729.976 536.662L729.968 536.667L729.96 536.672L730.814 537.988ZM722.968 547.051L724.378 547.739L722.968 547.051ZM722.968 573.293L724.378 572.604L722.968 573.293ZM730.814 582.356L729.96 583.672L729.968 583.677L729.976 583.682L730.814 582.356ZM742.176 527.924C747.957 527.924 753.083 529.301 757.597 532.027L759.219 529.341C754.175 526.295 748.48 524.786 742.176 524.786V527.924ZM757.597 532.027C762.122 534.758 765.669 538.555 768.247 543.453L771.023 541.992C768.191 536.609 764.253 532.38 759.219 529.341L757.597 532.027ZM768.247 543.453C770.819 548.339 772.125 553.944 772.125 560.307H775.262C775.262 553.504 773.862 547.386 771.023 541.992L768.247 543.453ZM772.125 560.307C772.125 566.576 770.821 572.136 768.247 577.026L771.023 578.487C773.861 573.096 775.262 567.024 775.262 560.307H772.125ZM768.242 577.035C765.758 581.833 762.26 585.584 757.733 588.317L759.354 591.003C764.386 587.965 768.283 583.78 771.028 578.478L768.242 577.035ZM757.721 588.324C753.303 591.043 748.228 592.42 742.447 592.42V595.557C748.75 595.557 754.405 594.048 759.366 590.996L757.721 588.324ZM742.447 592.42C738.082 592.42 734.09 591.481 730.446 589.616L729.017 592.409C733.128 594.513 737.613 595.557 742.447 595.557V592.42ZM730.485 589.637C726.917 587.683 723.893 584.962 721.408 581.45L718.847 583.261C721.593 587.144 724.971 590.194 728.978 592.389L730.485 589.637ZM718.559 582.356V618.878H721.696V582.356H718.559ZM720.128 617.309H710.93V620.446H720.128V617.309ZM712.498 618.878V528.519H709.361V618.878H712.498ZM710.93 530.088H720.128V526.951H710.93V530.088ZM718.559 528.519V537.853H721.696V528.519H718.559ZM721.398 538.774C723.877 535.354 726.896 532.723 730.459 530.856L729.004 528.077C724.993 530.178 721.609 533.137 718.858 536.932L721.398 538.774ZM730.485 530.842C734.031 528.9 737.919 527.924 742.176 527.924V524.786C737.416 524.786 733.007 525.884 728.978 528.09L730.485 530.842ZM742.447 587.171C746.967 587.171 751.055 586.012 754.663 583.672L752.955 581.039C749.89 583.028 746.403 584.033 742.447 584.033V587.171ZM754.663 583.672C758.249 581.345 761.047 578.15 763.058 574.129L760.251 572.726C758.474 576.281 756.042 579.037 752.955 581.039L754.663 583.672ZM763.064 574.116C765.075 569.998 766.064 565.384 766.064 560.307H762.926C762.926 564.969 762.021 569.102 760.245 572.74L763.064 574.116ZM766.064 560.307C766.064 555.144 765.077 550.484 763.064 546.363L760.245 547.739C762.019 551.373 762.926 555.55 762.926 560.307H766.064ZM763.064 546.363C761.056 542.252 758.258 539.004 754.663 536.672L752.955 539.304C756.033 541.3 758.465 544.095 760.245 547.739L763.064 546.363ZM754.663 536.672C751.055 534.332 746.967 533.173 742.447 533.173V536.31C746.403 536.31 749.89 537.316 752.955 539.304L754.663 536.672ZM742.447 533.173C737.843 533.173 733.671 534.328 729.976 536.662L731.651 539.314C734.81 537.319 738.394 536.31 742.447 536.31V533.173ZM729.96 536.672C726.364 539.004 723.566 542.252 721.559 546.363L724.378 547.739C726.158 544.095 728.59 541.3 731.667 539.304L729.96 536.672ZM721.559 546.363C719.548 550.481 718.559 555.094 718.559 560.172H721.696C721.696 555.51 722.602 551.376 724.378 547.739L721.559 546.363ZM718.559 560.172C718.559 565.249 719.548 569.863 721.559 573.981L724.378 572.604C722.602 568.967 721.696 564.834 721.696 560.172H718.559ZM721.559 573.981C723.566 578.092 726.364 581.339 729.96 583.672L731.667 581.039C728.59 579.043 726.158 576.249 724.378 572.604L721.559 573.981ZM729.976 583.682C733.671 586.015 737.843 587.171 742.447 587.171V584.033C738.394 584.033 734.81 583.024 731.651 581.029L729.976 583.682ZM845.459 528.519H847.027V526.951H845.459V528.519ZM845.459 591.824V593.393H847.027V591.824H845.459ZM836.261 591.824H834.692V593.393H836.261V591.824ZM836.261 582.491H837.829V577.655L834.991 581.57L836.261 582.491ZM826.657 591.013L827.384 592.402L827.397 592.395L827.41 592.389L826.657 591.013ZM797.98 589.66L797.169 591.003L797.98 589.66ZM786.753 577.621L788.141 576.891L786.753 577.621ZM786.618 542.722L785.229 541.992L785.225 542.001L786.618 542.722ZM797.71 530.684L796.899 529.341L796.887 529.348L797.71 530.684ZM826.521 529.466L825.768 530.842L825.787 530.853L825.807 530.863L826.521 529.466ZM836.261 537.988L834.98 538.894L837.829 542.922V537.988H836.261ZM836.261 528.519V526.951H834.692V528.519H836.261ZM825.439 582.356L824.602 581.029L824.594 581.034L824.586 581.039L825.439 582.356ZM833.42 573.293L832.01 572.604L833.42 573.293ZM833.42 547.051L834.83 546.363L833.42 547.051ZM825.439 537.988L824.586 539.304L824.594 539.309L824.602 539.314L825.439 537.988ZM802.579 537.988L801.725 536.672L802.579 537.988ZM794.734 547.051L796.137 547.752L796.14 547.746L796.143 547.739L794.734 547.051ZM794.734 573.293L793.324 573.981L794.734 573.293ZM802.579 582.356L801.725 583.672L802.579 582.356ZM843.89 528.519V591.824H847.027V528.519H843.89ZM845.459 590.256H836.261V593.393H845.459V590.256ZM837.829 591.824V582.491H834.692V591.824H837.829ZM834.991 581.57C832.507 584.995 829.48 587.678 825.903 589.637L827.41 592.389C831.408 590.199 834.784 587.201 837.531 583.412L834.991 581.57ZM825.929 589.623C822.378 591.483 818.482 592.42 814.212 592.42V595.557C818.96 595.557 823.36 594.51 827.384 592.402L825.929 589.623ZM814.212 592.42C808.432 592.42 803.306 591.043 798.791 588.317L797.169 591.003C802.213 594.048 807.909 595.557 814.212 595.557V592.42ZM798.791 588.317C794.266 585.585 790.719 581.789 788.141 576.891L785.365 578.352C788.198 583.734 792.135 587.963 797.169 591.003L798.791 588.317ZM788.141 576.891C785.569 572.004 784.264 566.399 784.264 560.037H781.126C781.126 566.84 782.526 572.958 785.365 578.352L788.141 576.891ZM784.264 560.037C784.264 553.759 785.526 548.241 788.011 543.444L785.225 542.001C782.479 547.304 781.126 553.328 781.126 560.037H784.264ZM788.006 543.453C790.588 538.547 794.095 534.75 798.532 532.02L796.887 529.348C791.945 532.389 788.058 536.617 785.229 541.992L788.006 543.453ZM798.52 532.027C803.035 529.301 808.161 527.924 813.942 527.924V524.786C807.638 524.786 801.943 526.295 796.899 529.341L798.52 532.027ZM813.942 527.924C818.295 527.924 822.226 528.903 825.768 530.842L827.275 528.09C823.241 525.882 818.786 524.786 813.942 524.786V527.924ZM825.807 530.863C829.45 532.727 832.505 535.395 834.98 538.894L837.541 537.082C834.786 533.186 831.348 530.174 827.236 528.07L825.807 530.863ZM837.829 537.988V528.519H834.692V537.988H837.829ZM836.261 530.088H845.459V526.951H836.261V530.088ZM813.942 587.171C818.545 587.171 822.68 586.015 826.293 583.672L824.586 581.039C821.526 583.024 817.995 584.033 813.942 584.033V587.171ZM826.277 583.682C829.966 581.352 832.817 578.103 834.83 573.981L832.01 572.604C830.236 576.238 827.766 579.031 824.602 581.029L826.277 583.682ZM834.83 573.981C836.841 569.863 837.829 565.249 837.829 560.172H834.692C834.692 564.834 833.787 568.967 832.01 572.604L834.83 573.981ZM837.829 560.172C837.829 555.094 836.841 550.481 834.83 546.363L832.01 547.739C833.787 551.376 834.692 555.51 834.692 560.172H837.829ZM834.83 546.363C832.817 542.241 829.966 538.992 826.277 536.662L824.602 539.314C827.766 541.313 830.236 544.106 832.01 547.739L834.83 546.363ZM826.293 536.672C822.68 534.328 818.545 533.173 813.942 533.173V536.31C817.995 536.31 821.526 537.319 824.586 539.304L826.293 536.672ZM813.942 533.173C809.421 533.173 805.333 534.332 801.725 536.672L803.433 539.304C806.498 537.316 809.985 536.31 813.942 536.31V533.173ZM801.725 536.672C798.13 539.004 795.332 542.252 793.324 546.363L796.143 547.739C797.923 544.095 800.355 541.3 803.433 539.304L801.725 536.672ZM793.331 546.349C791.313 550.385 790.324 554.96 790.324 560.037H793.462C793.462 555.374 794.367 551.292 796.137 547.752L793.331 546.349ZM790.324 560.037C790.324 565.199 791.311 569.859 793.324 573.981L796.143 572.604C794.369 568.971 793.462 564.793 793.462 560.037H790.324ZM793.324 573.981C795.332 578.092 798.13 581.339 801.725 583.672L803.433 581.039C800.355 579.043 797.923 576.249 796.143 572.604L793.324 573.981ZM801.725 583.672C805.333 586.012 809.421 587.171 813.942 587.171V584.033C809.985 584.033 806.498 583.028 803.433 581.039L801.725 583.672ZM910.19 528.519V526.951H909.397L908.926 527.59L910.19 528.519ZM919.388 528.519H920.957V526.951H919.388V528.519ZM919.388 591.824V593.393H920.957V591.824H919.388ZM910.19 591.824H908.622V593.393H910.19V591.824ZM910.19 541.37H911.759V536.64L908.932 540.432L910.19 541.37ZM872.586 591.824V593.393H873.373L873.844 592.762L872.586 591.824ZM863.388 591.824H861.819V593.393H863.388V591.824ZM863.388 528.519V526.951H861.819V528.519H863.388ZM872.586 528.519H874.155V526.951H872.586V528.519ZM872.586 579.65H871.017V584.431L873.85 580.58L872.586 579.65ZM876.644 514.993L875.774 516.298L876.644 514.993ZM871.369 505.524V503.955H869.8V505.524H871.369ZM880.567 505.524H882.135V503.955H880.567V505.524ZM900.857 505.524V503.955H899.288V505.524H900.857ZM910.055 505.524H911.624V503.955H910.055V505.524ZM904.78 514.993L905.65 516.298H905.65L904.78 514.993ZM910.19 530.088H919.388V526.951H910.19V530.088ZM917.82 528.519V591.824H920.957V528.519H917.82ZM919.388 590.256H910.19V593.393H919.388V590.256ZM911.759 591.824V541.37H908.622V591.824H911.759ZM908.932 540.432L871.328 590.887L873.844 592.762L911.448 542.307L908.932 540.432ZM872.586 590.256H863.388V593.393H872.586V590.256ZM864.957 591.824V528.519H861.819V591.824H864.957ZM863.388 530.088H872.586V526.951H863.388V530.088ZM871.017 528.519V579.65H874.155V528.519H871.017ZM873.85 580.58L911.454 529.449L908.926 527.59L871.322 578.721L873.85 580.58ZM890.712 516.941C885.044 516.941 880.692 515.806 877.514 513.687L875.774 516.298C879.63 518.869 884.656 520.078 890.712 520.078V516.941ZM877.514 513.687C874.4 511.611 872.937 508.928 872.937 505.524H869.8C869.8 510.056 871.854 513.685 875.774 516.298L877.514 513.687ZM871.369 507.093H880.567V503.955H871.369V507.093ZM878.998 505.524C878.998 508.113 880.102 510.19 882.283 511.528C884.339 512.789 887.221 513.315 890.712 513.315V510.178C887.439 510.178 885.249 509.667 883.923 508.853C882.723 508.117 882.135 507.083 882.135 505.524H878.998ZM890.712 513.315C894.203 513.315 897.085 512.789 899.141 511.528C901.322 510.19 902.425 508.113 902.425 505.524H899.288C899.288 507.083 898.701 508.117 897.5 508.853C896.175 509.667 893.984 510.178 890.712 510.178V513.315ZM900.857 507.093H910.055V503.955H900.857V507.093ZM908.486 505.524C908.486 508.928 907.024 511.611 903.909 513.687L905.65 516.298C909.569 513.685 911.624 510.056 911.624 505.524H908.486ZM903.909 513.687C900.732 515.806 896.379 516.941 890.712 516.941V520.078C896.767 520.078 901.793 518.869 905.65 516.298L903.909 513.687ZM948.432 589.66L949.242 588.317L948.432 589.66ZM937.204 577.621L938.593 576.891L937.204 577.621ZM937.069 542.722L935.681 541.992L935.676 542.001L935.671 542.011L937.069 542.722ZM977.92 529.737L977.117 531.085L977.136 531.096L977.155 531.107L977.92 529.737ZM988.471 539.07L989.435 540.307L990.671 539.344L989.709 538.107L988.471 539.07ZM981.707 544.346L980.416 545.237L981.361 546.605L982.672 545.582L981.707 544.346ZM953.031 537.988L952.193 536.662L952.185 536.667L952.177 536.672L953.031 537.988ZM945.185 547.051L943.776 546.363L945.185 547.051ZM945.185 573.293L946.595 572.604L945.185 573.293ZM953.031 582.356L952.177 583.672L952.185 583.677L952.193 583.682L953.031 582.356ZM975.214 583.438L975.934 584.832L975.951 584.823L975.969 584.813L975.214 583.438ZM982.789 576.81L983.687 575.523L982.468 574.672L981.553 575.844L982.789 576.81ZM989.959 581.814L991.181 582.798L992.234 581.49L990.856 580.528L989.959 581.814ZM978.867 590.742L979.568 592.145L979.58 592.139L978.867 590.742ZM964.799 592.42C958.924 592.42 953.754 591.041 949.242 588.317L947.621 591.003C952.669 594.051 958.41 595.557 964.799 595.557V592.42ZM949.242 588.317C944.718 585.585 941.171 581.789 938.593 576.891L935.816 578.352C938.649 583.734 942.587 587.963 947.621 591.003L949.242 588.317ZM938.593 576.891C936.019 572.001 934.715 566.44 934.715 560.172H931.578C931.578 566.889 932.979 572.961 935.816 578.352L938.593 576.891ZM934.715 560.172C934.715 553.895 935.978 548.327 938.467 543.434L935.671 542.011C932.93 547.398 931.578 553.463 931.578 560.172H934.715ZM938.457 543.453C941.035 538.555 944.582 534.758 949.107 532.027L947.486 529.341C942.451 532.38 938.514 536.609 935.681 541.992L938.457 543.453ZM949.107 532.027C953.622 529.301 958.748 527.924 964.528 527.924V524.786C958.225 524.786 952.53 526.295 947.486 529.341L949.107 532.027ZM964.528 527.924C969.434 527.924 973.611 528.997 977.117 531.085L978.722 528.389C974.654 525.967 969.903 524.786 964.528 524.786V527.924ZM977.155 531.107C980.823 533.153 984.185 536.115 987.232 540.033L989.709 538.107C986.444 533.909 982.772 530.649 978.684 528.367L977.155 531.107ZM987.506 537.833L980.742 543.109L982.672 545.582L989.435 540.307L987.506 537.833ZM982.998 543.455C978.323 536.68 972.139 533.173 964.528 533.173V536.31C970.986 536.31 976.254 539.206 980.416 545.237L982.998 543.455ZM964.528 533.173C960.008 533.173 955.882 534.332 952.193 536.662L953.868 539.314C957.033 537.316 960.572 536.31 964.528 536.31V533.173ZM952.177 536.672C948.581 539.004 945.783 542.252 943.776 546.363L946.595 547.739C948.375 544.095 950.807 541.3 953.884 539.304L952.177 536.672ZM943.776 546.363C941.764 550.481 940.776 555.094 940.776 560.172H943.913C943.913 555.51 944.818 551.376 946.595 547.739L943.776 546.363ZM940.776 560.172C940.776 565.249 941.764 569.863 943.776 573.981L946.595 572.604C944.818 568.967 943.913 564.834 943.913 560.172H940.776ZM943.776 573.981C945.783 578.092 948.581 581.339 952.177 583.672L953.884 581.039C950.807 579.043 948.375 576.249 946.595 572.604L943.776 573.981ZM952.193 583.682C955.882 586.012 960.008 587.171 964.528 587.171V584.033C960.572 584.033 957.033 583.028 953.868 581.029L952.193 583.682ZM964.528 587.171C969.018 587.171 972.848 586.424 975.934 584.832L974.495 582.044C971.99 583.337 968.696 584.033 964.528 584.033V587.171ZM975.969 584.813C978.977 583.164 981.659 580.804 984.026 577.775L981.553 575.844C979.411 578.586 977.043 580.646 974.46 582.062L975.969 584.813ZM981.891 578.096L989.061 583.101L990.856 580.528L983.687 575.523L981.891 578.096ZM988.737 580.831C985.906 584.348 982.385 587.186 978.154 589.345L979.58 592.139C984.186 589.789 988.06 586.675 991.181 582.798L988.737 580.831ZM978.165 589.339C974.064 591.39 969.616 592.42 964.799 592.42V595.557C970.081 595.557 975.012 594.423 979.568 592.145L978.165 589.339Z" fill="black" mask="url(#path-3-outside-1_1071_149)"/>
<circle cx="201.76" cy="499.604" r="67.6038" fill="url(#paint0_linear_1071_149)"/>
<circle cx="206.766" cy="604.765" r="44.2346" fill="url(#paint1_linear_1071_149)"/>
<circle cx="251.546" cy="554.095" r="64.5771" fill="url(#paint2_linear_1071_149)"/>
<rect x="85" y="493.701" width="110.853" height="110.853" rx="10.4578" fill="#119B8C"/>
<path d="M99.1771 572.434V529.168H106.718L122.479 554.757L118.152 554.695L134.037 529.168H141.206V572.434H133.357V556.24C133.357 552.49 133.439 549.132 133.604 546.165C133.81 543.157 134.14 540.19 134.593 537.265L135.582 539.861L122.17 560.628H118.029L104.987 540.108L105.852 537.265C106.306 540.026 106.615 542.869 106.779 545.794C106.986 548.72 107.089 552.202 107.089 556.24V572.434H99.1771ZM152.897 572.434V529.168H170.883C173.355 529.168 175.58 529.766 177.558 530.961C179.577 532.155 181.164 533.783 182.317 535.843C183.512 537.904 184.11 540.211 184.11 542.766C184.11 545.321 183.512 547.649 182.317 549.75C181.164 551.81 179.577 553.459 177.558 554.695C175.58 555.931 173.355 556.549 170.883 556.549H160.87V572.434H152.897ZM160.87 549.194H170.327C171.398 549.194 172.346 548.905 173.17 548.329C174.035 547.752 174.715 546.989 175.21 546.042C175.745 545.053 176.013 543.981 176.013 542.828C176.013 541.633 175.745 540.561 175.21 539.614C174.715 538.666 174.035 537.924 173.17 537.389C172.346 536.853 171.398 536.585 170.327 536.585H160.87V549.194Z" fill="white"/>
<defs>
<linearGradient id="paint0_linear_1071_149" x1="214.504" y1="443" x2="256.504" y2="475" gradientUnits="userSpaceOnUse">
<stop stop-color="#1A6561"/>
<stop offset="1" stop-color="#0E9AA1"/>
</linearGradient>
<linearGradient id="paint1_linear_1071_149" x1="216" y1="595.5" x2="230.5" y2="655.5" gradientUnits="userSpaceOnUse">
<stop offset="0.212546" stop-color="#1BB6C4"/>
<stop offset="1" stop-color="#05595D"/>
</linearGradient>
<linearGradient id="paint2_linear_1071_149" x1="291.504" y1="529" x2="187.004" y2="598.5" gradientUnits="userSpaceOnUse">
<stop stop-color="#0FA0A8"/>
<stop offset="1" stop-color="#003437"/>
</linearGradient>
</defs>
</svg>
